<?xml version="1.0" encoding="UTF-8"?>
<!-- Generator: Adobe Illustrator 26.3.1, SVG Export Plug-In . SVG Version: 6.00 Build 0)  -->
<svg xmlns="http://www.w3.org/2000/svg" xmlns:xlink="http://www.w3.org/1999/xlink" version="1.1" id="Layer_1" x="0px" y="0px" viewBox="0 0 63 122" style="enable-background:new 0 0 63 122;" xml:space="preserve">
<style type="text/css">
	.st0{fill:#FFC634;}
</style>
<g>
	<path class="st0" d="M22.9,13.2c-0.3,2.2-1.1,4.7-1.9,6.4c-0.3,0.8-0.8,1.7-1.1,2.2c-0.3,0.6-0.3,0.8-0.3,0.8s-0.8-0.6-1.7-1.7   c-0.8-1.1-1.4-3.1-1.4-5.3c0-2.5,1.1-5,2.2-7c0.3-0.6,0.6-0.8,0.8-1.4c0.3-0.3,0.6-0.6,0.8-0.8c0.6-0.6,0.8-0.8,0.8-0.8   s0.6,0.8,1.1,1.9c0,0.8,0.3,1.7,0.6,2.5C22.9,11,22.9,12.1,22.9,13.2z"></path>
	<path class="st0" d="M13.4,30.2c0.3,2.5,0.3,5.3-0.3,7.2c0,0.6-0.3,1.1-0.3,1.4c0,0.6,0,0.8-0.3,1.1c0,0.6-0.3,1.1-0.3,1.1   s-0.8-0.3-1.9-1.4c-0.6-0.6-1.1-1.1-1.7-1.9c-0.6-0.8-1.1-1.9-1.4-3.3c-0.6-2.5-0.3-5.6,0.6-7.8c0.3-1.1,0.6-2.2,0.8-2.8   c0.3-0.8,0.6-1.1,0.6-1.1s0,0,0.6,0.6c0.3,0.3,0.8,0.8,1.4,1.4c0.3,0.6,0.8,1.4,1.1,2.2C12.9,27.7,13.1,28.8,13.4,30.2z"></path>
	<path class="st0" d="M8.4,48.8c1.1,2.5,1.7,5.6,2.2,7.8c0,0.6,0.3,1.1,0.3,1.7c0,0.6,0.3,0.8,0.3,1.4c0,0.8,0,1.1,0,1.1   s-0.3,0-0.8,0c-0.6,0-1.1-0.3-1.9-0.6c-0.8-0.3-1.7-0.8-2.5-1.7c-0.8-0.8-1.7-1.7-2.5-3.1c-1.4-2.8-1.9-6.1-1.9-8.6   c0-0.6,0-1.4,0-1.9c0-0.6,0-1.1,0-1.4c0-0.8,0.3-1.4,0.3-1.4s1.1,0.3,2.5,1.4c0.6,0.6,1.4,1.1,2.2,2.2C7.3,46.6,7.9,47.7,8.4,48.8z   "></path>
	<path class="st0" d="M9.5,68.5c1.9,2.2,3.6,5,4.7,7.2c0.3,0.3,0.3,0.6,0.6,0.8c0.3,0.3,0.3,0.6,0.3,0.8c0.3,0.6,0.6,0.8,0.6,1.1   c0.3,0.8,0.6,1.1,0.6,1.1s-0.3,0-0.8,0.3c-0.6,0-1.4,0.3-2.2,0c-1.7,0-4.4-0.6-6.7-2.8c-2.5-2.2-4.2-5.6-5-8.3   c-0.3-0.8-0.6-1.4-0.6-1.9c-0.3-0.6-0.3-1.1-0.3-1.7c-0.3-1.1-0.3-1.7-0.3-1.7s0.3,0,0.8,0c0.6,0,1.4,0.3,2.2,0.6   c0.8,0.3,1.9,0.8,2.8,1.4c0.6,0.3,1.1,0.8,1.7,1.1C8.4,67.4,9,68,9.5,68.5z"></path>
	<path class="st0" d="M16.8,86.6c0.3,0.3,0.8,0.6,1.1,0.6c0.3,0.3,0.8,0.6,1.1,0.6c0.6,0.6,1.4,0.8,1.9,1.4c0.3,0.3,0.6,0.6,0.8,0.8   c0.3,0,0.3,0.3,0.6,0.3c0.3,0,0.3,0.3,0.6,0.3c0.6,0.6,1.1,1.1,1.7,1.4c1.1,0.8,1.9,1.7,2.5,2.2s0.8,0.8,0.8,0.8s-0.3,0.3-0.8,0.6   c-0.6,0.3-1.4,0.6-2.2,0.8c-0.8,0.3-2.2,0.6-3.3,0.6c-1.4,0-2.8-0.3-4.4-1.1c-3.6-0.8-6.7-3.6-8.3-6.4c-0.6-0.6-0.8-1.4-1.4-1.9   c-0.3-0.6-0.6-1.1-0.8-1.7c-0.6-0.8-0.8-1.4-0.8-1.4s0.3,0,0.8-0.3c0.6,0,1.4,0,2.5,0c0.6,0,1.1,0,1.7,0.3c0.6,0,1.1,0.3,1.9,0.3   c0.6,0.3,1.4,0.3,1.9,0.6C15.1,85.8,15.9,86.3,16.8,86.6z"></path>
	<path class="st0" d="M29.3,101.6c1.7,0.3,3.6,0.8,5.3,1.4c0.8,0.3,1.7,0.6,2.5,0.8c0.3,0.3,0.8,0.3,1.1,0.6c0.3,0,0.8,0.3,1.1,0.3   c1.4,0.6,2.5,1.1,3.3,1.4c0.3,0.3,0.8,0.3,1.1,0.3c0.3,0,0.3,0.3,0.3,0.3s-0.3,0.3-0.6,0.8c-0.3,0.6-1.1,1.1-1.9,1.7   c-0.8,0.6-1.9,1.4-3.3,1.7c-0.8,0.3-1.4,0.3-2.2,0.6c-0.8,0-1.7,0.3-2.8,0c-0.8,0-1.9-0.3-3.1-0.6c-0.8-0.3-1.9-0.6-2.8-1.1   c-0.8-0.3-1.9-0.8-2.8-1.4c-0.8-0.6-1.7-1.1-2.5-1.4c-0.3,0-0.3-0.3-0.6-0.3s-0.3-0.3-0.6-0.3c-0.3-0.3-0.6-0.6-0.8-0.8   c-0.6-0.6-1.1-0.8-1.4-1.4c-1.1-0.3-1.4-0.8-1.4-0.8s0.3-0.3,0.8-0.6c0.6-0.3,1.4-0.6,2.5-0.8c0.6,0,1.1-0.3,1.7-0.3   c0.6,0,1.4-0.3,1.9-0.3c0.8,0,1.4,0,2.2,0C27.6,101.4,28.4,101.6,29.3,101.6z"></path>
	<path class="st0" d="M46.2,111.9c0.8-0.3,1.9-0.3,2.8-0.3c0.8,0,1.9-0.3,2.8-0.3c0.8,0,1.9,0,2.8,0c0.8,0,1.7,0,2.5,0   c1.7,0,3.1,0,3.9,0c0.8,0,1.7,0,1.7,0s0,0.3-0.3,1.1c-0.3,0.6-0.6,1.4-1.1,2.5c-0.3,0.6-0.6,1.1-1.1,1.7c-0.3,0.3-0.6,0.6-0.6,0.8   c-0.3,0.3-0.6,0.6-0.8,0.8c-0.6,0.6-1.4,1.1-1.9,1.4c-0.8,0.6-1.7,0.8-2.8,1.1c-1.1,0.3-1.9,0.6-3.1,0.6c-1.1,0.3-2.2,0.3-3.3,0   c-1.1,0-2.2-0.3-3.3-0.3c-1.1-0.3-2.2-0.3-3.1-0.6c-0.6,0-0.8-0.3-1.4-0.3c-0.6-0.3-0.8-0.3-1.1-0.6c-0.8-0.3-1.4-0.6-1.9-0.8   c-1.1-0.6-1.7-0.8-1.7-0.8s0.3-0.3,0.8-0.8c0.6-0.6,1.1-1.1,2.2-1.7c1.1-0.6,2.2-1.4,3.6-1.9C42.6,112.8,44.3,112.2,46.2,111.9z"></path>
	<path class="st0" d="M26.5,16c-1.9,0.8-3.9,2.5-5,3.9c-0.8,0.8-1.1,1.4-1.4,1.9c-0.6,0.6-0.6,0.8-0.6,0.8s0.8,0.3,2.2,0.6   c1.4,0,3.3,0,5-0.8c1.9-0.8,3.6-2.2,4.7-3.3c0.3-0.3,0.6-0.6,0.8-0.8c0.3-0.3,0.6-0.6,0.6-0.6c0.6-0.6,0.8-0.8,0.8-0.8   s-0.8-0.6-1.9-0.8c-0.6-0.3-1.4-0.3-2.2-0.3C28.4,15.4,27.6,15.7,26.5,16z"></path>
	<path class="st0" d="M18.2,31.8c-1.9,1.4-3.3,3.6-4.2,5.6c-0.3,0.6-0.3,0.8-0.6,1.4c-0.3,0.6-0.3,0.8-0.3,1.1   c-0.3,0.6-0.3,1.1-0.3,1.1s1.1,0,2.5-0.3c0.8-0.3,1.7-0.3,2.5-0.8c0.8-0.3,1.9-0.8,2.8-1.7c1.7-1.4,3.1-3.3,4.2-5   c0.6-0.8,0.8-1.4,1.1-1.9c0.3-0.6,0.3-0.8,0.3-0.8s-0.3,0-0.6-0.3c-0.6,0-1.1-0.3-1.9-0.3c-0.8,0-1.7,0-2.5,0.3   C20.1,30.7,19,31.3,18.2,31.8z"></path>
	<path class="st0" d="M14,49.4c-1.7,1.9-2.5,5-2.8,7.2c0,0.6,0,1.1-0.3,1.7c0,0.6,0,0.8,0,1.4c0,0.8,0,1.1,0,1.1s0.3,0,0.8-0.3   c0.6-0.3,1.1-0.6,1.9-0.8c0.8-0.3,1.7-0.8,2.2-1.7c0.8-0.6,1.7-1.4,2.2-2.5c1.4-1.9,2.2-4.4,2.8-6.1c0-0.6,0.3-0.8,0.3-1.4   c0-0.3,0.3-0.8,0.3-1.1c0.3-0.6,0.3-0.8,0.3-0.8s-1.1,0-2.8,0.3c-0.8,0.3-1.7,0.6-2.5,1.1C15.6,47.7,14.8,48.5,14,49.4z"></path>
	<path class="st0" d="M15.4,67.2c-0.8,2.8-0.8,5.8-0.3,8.3c0,0.3,0,0.6,0.3,0.8c0,0.3,0.3,0.6,0.3,0.8c0.3,0.6,0.3,0.8,0.6,1.4   c0,0.3,0.3,0.6,0.3,0.8c0,0.3,0,0.3,0,0.3s0.3-0.3,0.6-0.6c0.3-0.3,0.8-0.8,1.7-1.7c1.1-1.4,2.5-3.3,3.3-5.8   c0.6-2.5,0.6-5.3,0.6-7.2c0-0.6,0-1.1,0-1.4c0-0.6,0-0.8,0-1.1c0-0.6,0-1.1,0-1.1s-0.3,0-0.8,0.3c-0.6,0.3-1.1,0.6-1.9,0.8   c-0.8,0.6-1.7,1.1-2.2,1.9c-0.3,0.3-0.8,0.8-1.1,1.4C15.9,65.8,15.6,66.3,15.4,67.2z"></path>
	<path class="st0" d="M22.3,83.3c0,0.3,0,0.8,0,1.1c0,0.3,0,0.8,0.3,1.1c0,0.8,0.3,1.7,0.6,2.2c0,0.3,0.3,0.8,0.3,1.1   c0,0.3,0.3,0.3,0.3,0.6c0,0.3,0.3,0.3,0.3,0.6c0.3,0.6,0.6,1.4,1.1,1.9c0.8,1.1,1.4,2.2,1.9,2.8c0.6,0.6,0.8,1.1,0.8,1.1   s0-0.6,0.3-0.8c0.3-0.6,0.6-1.1,1.1-2.2c0.3-0.8,0.8-1.9,0.8-3.1c0.3-1.1,0.3-2.5,0.3-3.9c0-2.8-0.8-5.6-1.7-7.5   c-0.3-0.6-0.3-1.1-0.6-1.4c0-0.8-0.3-1.1-0.3-1.4c-0.3-0.6-0.6-1.1-0.6-1.1s-0.3,0.3-0.8,0.6c-0.6,0.3-1.1,0.8-1.7,1.7   c-0.3,0.3-0.6,0.8-0.8,1.1c-0.3,0.6-0.6,0.8-0.8,1.4c-0.3,0.8-0.6,1.4-0.6,1.9C22.3,81.9,22.3,82.4,22.3,83.3z"></path>
	<path class="st0" d="M33.7,96.3c0.6,1.7,1.4,3.1,2.2,4.4c0.6,0.6,1.1,1.4,1.7,1.9c0.3,0.3,0.6,0.6,0.8,0.8c0.3,0.3,0.6,0.6,0.8,0.8   c1.1,0.8,2.2,1.7,3.1,1.9c0.3,0.3,0.8,0.3,0.8,0.6c0.3,0,0.3,0.3,0.3,0.3s0-0.3,0.3-0.8c0-0.6,0.3-1.4,0.3-2.5s0-2.2-0.3-3.6   c0-0.6-0.3-1.4-0.3-1.9c-0.3-0.6-0.3-1.4-0.6-1.9c-1.1-2.8-2.8-5-4.2-7l-0.3-0.3l-0.3-0.3c-0.3-0.3-0.3-0.3-0.6-0.6   c-0.3-0.3-0.6-0.6-0.8-0.8c-0.6-0.6-0.8-0.8-0.8-0.8s-0.3,0.3-0.6,0.8c-0.3,0.6-0.8,1.1-1.1,2.2c-0.3,0.6-0.3,1.1-0.6,1.7   c-0.3,0.6-0.3,1.1-0.3,1.9c0,0.6,0,1.4,0,1.9C33.4,95,33.4,95.5,33.7,96.3z"></path>
	<path class="st0" d="M30.4,4.3c-2.5,1.9-3.6,4.4-4.4,6.7c-0.3,0.3-0.3,0.8-0.6,1.1c0,0.6,0,0.8,0,1.1c-0.3,0.6-0.3,1.1-0.3,1.1   s0.3,0,0.8-0.3c0.3,0,0.6-0.3,1.1-0.6c0.3-0.3,0.8-0.6,1.1-0.8c1.7-0.8,4.2-2.2,6.1-4.2c2.2-1.7,3.6-3.6,5-5.3   c0.3-0.3,0.6-0.8,0.8-1.1c0.3-0.3,0.6-0.6,0.6-0.8c0.3-0.6,0.6-0.8,0.6-0.8s-0.3,0-0.8,0c-0.3,0-0.6,0-1.1,0c-0.6,0-0.8,0-1.4,0.3   c-0.6,0-1.1,0.3-1.7,0.6c-0.3,0-0.6,0.3-0.8,0.3c-0.3,0-0.6,0.3-0.8,0.3c-0.3,0.3-0.6,0.3-0.8,0.6c-0.3,0.3-0.6,0.3-0.8,0.6   c-0.3,0.3-0.6,0.3-0.8,0.6C30.9,3.8,30.7,4,30.4,4.3z"></path>
	<path class="st0" d="M48.7,104.7c0.6,0.6,1.1,1.4,1.7,1.9c0.6,0.6,1.4,1.1,2.2,1.7c0.8,0.6,1.7,0.8,2.2,1.1   c0.8,0.3,1.7,0.6,2.2,0.8c1.4,0.3,2.8,0.6,3.9,0.6c0.8,0,1.7,0,1.7,0s0-0.3-0.3-1.1c-0.3-0.6-0.6-1.7-0.8-2.5   c-0.3-0.6-0.6-1.1-0.8-1.7c-0.3-0.3-0.3-0.6-0.6-0.8c-0.3-0.3-0.3-0.6-0.6-0.8c-0.3-0.6-0.8-1.1-1.1-1.7c-0.6-0.6-0.8-1.1-1.4-1.7   c-2.2-2.2-4.4-3.9-6.4-5c0-0.3-0.3-0.6-0.6-0.6c-0.3-0.3-0.6-0.3-0.6-0.3c-0.3-0.3-0.8-0.6-1.1-0.6c-0.6-0.3-0.8-0.6-0.8-0.6   s-0.3,0.3-0.3,1.1c-0.3,0.6-0.3,1.4-0.6,2.5c0,1.1,0,2.2,0.3,3.6C47.1,101.9,47.6,103.3,48.7,104.7z"></path>
</g>
</svg>
