<?xml version="1.0" encoding="UTF-8"?>
<!-- Generator: Adobe Illustrator 26.3.1, SVG Export Plug-In . SVG Version: 6.00 Build 0)  -->
<svg xmlns="http://www.w3.org/2000/svg" xmlns:xlink="http://www.w3.org/1999/xlink" version="1.1" id="Layer_1" x="0px" y="0px" viewBox="0 0 13 16" style="enable-background:new 0 0 13 16;" xml:space="preserve">
<style type="text/css">
	.st0{fill:#0048FF;}
	.st1{fill:none;stroke:#FFFFFF;stroke-opacity:0.7;}
</style>
<g>
	<path class="st0" d="M2.5,1.6C2.4,1.5,2.2,1.5,2.1,1.5c-0.2,0-0.3,0-0.5,0.1C1.5,1.6,1.4,1.7,1.3,1.8S1.2,2.1,1.2,2.3v11.5   c0,0.8,0.9,1.1,1.4,0.5l2.9-3.3c0.1-0.1,0.3-0.2,0.4-0.3c0.2-0.1,0.3-0.1,0.5-0.1H11c0.8,0,1.1-1,0.5-1.4L2.5,1.6z"></path>
	<path class="st1" d="M3,14.6L3,14.6l2.9-3.3c0.1-0.1,0.2-0.1,0.2-0.2S6.3,11,6.4,11h0H11c1.2,0,1.8-1.5,0.8-2.3l-9-7.4c0,0,0,0,0,0   c0,0,0,0,0,0C2.6,1.1,2.4,1,2.1,1c-0.2,0-0.5,0-0.7,0.1C1.2,1.2,1,1.4,0.9,1.6C0.7,1.8,0.7,2,0.7,2.3c0,0,0,0,0,0v11.5   C0.7,14.9,2.2,15.5,3,14.6z"></path>
</g>
</svg>
